<?xml version="1.0" encoding="UTF-8"?>
<svg id="Layer_1" xmlns="http://www.w3.org/2000/svg" version="1.1" viewBox="0 0 283.46 198.43">
  <!-- Generator: Adobe Illustrator 29.5.1, SVG Export Plug-In . SVG Version: 2.1.0 Build 141)  -->
  <defs>
    <style>
      .st0 {
        fill: #fff;
      }
    </style>
  </defs>
  <path class="st0" d="M135.62,77.75v.06s.03-.02.03-.02v-.04s-.03,0-.03,0Z"/>
  <path class="st0" d="M135.62,77v.81s.03-.02.03-.02l1.86-.79h-1.89Z"/>
  <path class="st0" d="M135.62,77v.81s.03-.02.03-.02l1.86-.79h-1.89Z"/>
  <path class="st0" d="M175.74,143.32h14.14s-14.02,22.31-14.02,22.31h-15.12s-25.11-39.84-25.11-39.84l-21.82-.02v-31.45s-14.75,0-14.75,0v7.84s10.1,15.33,10.1,15.33h-.09c-.25.42-.7,1.11-1.35,2.07-.65.96-1.34,1.95-2.09,2.97-.74,1.03-1.47,2-2.18,2.93-.71.93-1.25,1.58-1.63,1.94v.45s33.8.01,33.8.01v15.5s-46.15-.02-46.15-.02c-1.37,0-2.67-.33-3.9-.99-1.24-.66-2.31-1.52-3.2-2.57-.9-1.05-1.61-2.23-2.14-3.52-.52-1.29-.76-3.72-.76-4.98,0-3.06.52-4.61,1.61-6.96,1.08-2.34,2.61-4.59,4.59-6.75l-8.53-14.52.02-25.32,52.4.02c-1.19-.7-2.8-1.66-4.82-2.87-4.9-2.94-12.27-7.29-22.12-13.08l-.03-28.47,30.34,18.49,41.23-19.03.03,28.58-36.69,15.63h-1.89s0,.81,0,.81l.03-.02,1.86-.79h64.18s11.1,20.96,11.1,20.96h-48.4s0,25.74,0,25.74l11.34,19.63Z"/>
</svg>