<svg width="100" height="100" viewBox="0 0 100 100">
  <defs>
    <linearGradient id="logoGradient" x1="0%" y1="0%" x2="0%" y2="100%">
      <stop offset="0%" style="stop-color:#ff6b35;stop-opacity:1" />
      <stop offset="50%" style="stop-color:#ff8e8e;stop-opacity:1" />
      <stop offset="100%" style="stop-color:#6b46c1;stop-opacity:1" />
    </linearGradient>
  </defs>
  
  <!-- Stylized heart/B shape with gradient -->
  <path d="M30 20 Q50 20 70 20 Q80 20 80 30 Q80 40 70 45 Q60 50 50 50 Q40 50 30 45 Q20 40 20 30 Q20 20 30 20 Z" 
        fill="url(#logoGradient)" />
  
  <!-- Inner curve for B shape -->
  <path d="M35 25 Q45 25 55 25 Q65 25 65 30 Q65 35 55 40 Q45 45 35 40 Q25 35 25 30 Q25 25 35 25 Z" 
        fill="white" opacity="0.3" />
</svg> 